/* XPM */
static char *d3f6ad46c1e6485889d1b64bbb090489mRcqCOLxsKU2rWaU[] = {
/* columns rows colors chars-per-pixel */
"32 32 237 2 ",
"   c None",
".  c black",
"X  c #060000",
"o  c #070100",
"O  c #1F0101",
"+  c #290302",
"@  c #5F0C07",
"#  c #600C07",
"$  c #620C07",
"%  c #6B0F09",
"&  c #65100C",
"*  c #68150F",
"=  c #75110A",
"-  c #77120B",
";  c #74120C",
":  c #78120B",
">  c #6A0011",
",  c #6B0011",
"<  c #6F0013",
"1  c #6C1610",
"2  c #6F1A14",
"3  c #7A251D",
"4  c #563E35",
"5  c #663630",
"6  c #663930",
"7  c #68383F",
"8  c #00400D",
"9  c #004711",
"0  c #004E15",
"q  c #574635",
"w  c #644137",
"e  c #644238",
"r  c #68473E",
"t  c #694A3F",
"y  c #6A4A3F",
"u  c #70713F",
"i  c #783949",
"p  c #6F4443",
"a  c #6B4B40",
"s  c #6C4940",
"d  c #6E4D42",
"f  c #7A4749",
"g  c #794A49",
"h  c #725344",
"j  c #725544",
"k  c #795447",
"l  c #795448",
"z  c #795548",
"x  c #7A5648",
"c  c #7B5649",
"v  c #7B5A49",
"b  c #746943",
"n  c #84150E",
"m  c #85150E",
"M  c #88160E",
"N  c #89160E",
"B  c #8B170E",
"V  c #8B170F",
"C  c #851C15",
"Z  c #9A1B11",
"A  c #9B1B11",
"S  c #9B1B12",
"D  c #9D1B12",
"F  c #9E1B12",
"G  c #9F1B12",
"H  c #A01C12",
"J  c #A01C13",
"K  c #A21D12",
"L  c #A31C13",
"P  c #A21D13",
"I  c #A51D14",
"U  c #A61D14",
"Y  c #A71D14",
"T  c #AA1E14",
"R  c #AB1E14",
"E  c #AE1F15",
"W  c #A41F18",
"Q  c #91221A",
"!  c #94241C",
"~  c #AE241D",
"^  c #B82216",
"/  c #B92217",
"(  c #BC2217",
")  c #BE2217",
"_  c #B4241C",
"`  c #BA2218",
"'  c #922821",
"]  c #9C2D24",
"[  c #953023",
"{  c #B52E25",
"}  c #B92821",
"|  c #AC3229",
" . c #B0342A",
".. c #B93228",
"X. c #C02318",
"o. c #C12419",
"O. c #C22419",
"+. c #C2241A",
"@. c #C3251A",
"#. c #C6251A",
"$. c #C7251A",
"%. c #C6261B",
"&. c #C6261C",
"*. c #C5271E",
"=. c #C8251A",
"-. c #C9251A",
";. c #C8261A",
":. c #CB261A",
">. c #CB261B",
",. c #CC261B",
"<. c #CD261B",
"1. c #CE271B",
"2. c #C9281E",
"3. c #C9281F",
"4. c #CA281F",
"5. c #CB281F",
"6. c #CD281D",
"7. c #CC281F",
"8. c #CC291F",
"9. c #C32E25",
"0. c #CB2920",
"q. c #CC2920",
"w. c #CD2920",
"e. c #CF2A21",
"r. c #D12A21",
"t. c #D12B22",
"y. c #D22C23",
"u. c #D32C23",
"i. c #D32D24",
"p. c #D42D24",
"a. c #D52E25",
"s. c #D62E25",
"d. c #D72F26",
"f. c #D92F25",
"g. c #DB2F27",
"h. c #DE2F25",
"j. c #CD362B",
"k. c #CE372C",
"l. c #D93027",
"z. c #DC3027",
"x. c #DC3028",
"c. c #DD3128",
"v. c #DD3129",
"b. c #DE3129",
"n. c #DD3229",
"m. c #DE3229",
"M. c #DF3229",
"N. c #DF332A",
"B. c #CB3C32",
"V. c #CF3E33",
"C. c #D43E33",
"Z. c #E13229",
"A. c #E23229",
"S. c #E0332A",
"D. c #E3332A",
"F. c #E3352C",
"G. c #E3362C",
"H. c #E5372D",
"J. c #E6392E",
"K. c #E7392F",
"L. c #E8392F",
"P. c #E83A2F",
"I. c #EE3B30",
"U. c #EA3C31",
"Y. c #EB3C31",
"T. c #EB3D31",
"R. c #EC3D31",
"E. c #EE3D32",
"W. c #ED3E32",
"Q. c #D74135",
"!. c #D64136",
"~. c #D74236",
"^. c #DD4338",
"/. c #F04033",
"(. c #F04034",
"). c #F24134",
"_. c #F34234",
"`. c #F24235",
"'. c #F34235",
"]. c #F24236",
"[. c #F34336",
"{. c #F44335",
"}. c #F44336",
"|. c #F34437",
" X c #F54436",
".X c #F44437",
"XX c #F54437",
"oX c #F64437",
"OX c #F74437",
"+X c #F64537",
"@X c #FA4537",
"#X c #FB4537",
"$X c #F44538",
"%X c #F64538",
"&X c #F6473A",
"*X c #F94538",
"=X c #FB4538",
"-X c #F7483B",
";X c #F34B3E",
":X c #F9483B",
">X c #F8483C",
",X c #F9493C",
"<X c #FD4B3E",
"1X c #835F4E",
"2X c #F74C40",
"3X c #FC4D40",
"4X c #FF4D40",
"5X c #FF4E41",
"6X c #FF4F42",
"7X c #FF5043",
"8X c #FF5143",
"9X c #FE5242",
"0X c #FE5243",
"qX c #FF5243",
"wX c #FF5144",
"eX c #FF5244",
"rX c #FF5346",
"tX c #FF5546",
"yX c #78AF3B",
"uX c #7CAF3C",
"iX c #7CB33D",
"pX c #798243",
"aX c #798743",
"sX c #7F8B46",
"dX c #7A9441",
"fX c #80AA44",
"gX c #83B544",
"hX c #85BA44",
"jX c #86BE46",
"kX c #85C142",
"lX c #8AC24A",
"zX c #8BC34A",
"xX c #8CC44A",
"cX c #8EC74B",
"vX c #8FC74B",
"bX c #90C54B",
"nX c #91CC4E",
/* pixels */
"                                                                ",
"                                                                ",
"                      kXsXf 1Xz                                 ",
"                    gXiXaXg v k d                               ",
"                  nXbXyXpXi z z z a                             ",
"                  lXcXjXfXdXb p h a                             ",
"                  lXcXbXhXiXu 7 j a                             ",
"                      0 9 8 q r y 4 . . .                       ",
"                      < , , 6 e e 6 1 * &                       ",
"              . . . [ 8X9XwX3 . . 2 {.T.Z.C . . .               ",
"              ] | ' B.8X<X<X..Q ! { @XE.Z.~ = n =               ",
"          . . ;XwXwXwX8X:X].{.*X*X*X].U.M.l.t.8.^ . .           ",
"        .  .V.2X8X>X*X,X&X}.{.{.}.}.{.E.M.a.w.$.( D m .         ",
"        . ^.tX6X6X].).].}.}.{.].].}.&XT.M.a.0.@.X.1.Y .         ",
"        . Q.wX&X}.}.}.}.}.}.}.}.}.}.}.T.M.a.8.w.2.$.P .         ",
"        . Q.8X|.].}.}.}.}.}.}.}.}.}.}.T.M.l.w.t.w.=.L .         ",
"        . Q.8X&X}.}.}.}.}.}.}.}.}.}.{.E.l.F.z.y.2.=.L .         ",
"        . C.6X{.].}.}.}.}.}.}.}.}.}.{.E.F.F.N.y.2.=.P .         ",
"        . j.@X].}.}.}.}.}.}.}.}.{.{.|.{.&XK.M.y.8.=.L .         ",
"        . j.@X}.}.}.}.}.}.}.}.}.&X{.].].E.S.M.y.7.=.L .         ",
"        . k.=X].}.}.}.}.}.}.}.}.].}.{.T.g.Z.Z.i.5.=.P .         ",
"        . 9.I.K.L.L.L.L.L.L.L.L.L.K.U.H.M.l.i.t.w.=.L .         ",
"        . } Z.M.z.M.z.M.M.z.g.M.z.M.z.M.S.i.0.t.0.$.P .         ",
"        . _ g.y.i.i.i.y.i.i.i.a.a.y.i.t.i.t.w.&.@.1.Y .         ",
"        . ~ @.&.5.5.5.2.w.7.2.2.5.w.8.2.0.0.0.$.( ^ S .         ",
"          X + ` 1.$.$.X.@.X.$.$.=.=.X.$.X.$.$.=.` O X           ",
"            . S T D E $.X.@.E P P T X.X.X.E D T S .             ",
"              . . . = =.=.=.$ . . @ =.=.7.: . . .               ",
"                    % V V V #     # V m V %                     ",
"                      . . .         . . .                       ",
"                                                                ",
"                                                                "
};
